<?xml version="1.0" standalone="no"?>
<!DOCTYPE svg PUBLIC "-//W3C//DTD SVG 20010904//EN"
 "http://www.w3.org/TR/2001/REC-SVG-20010904/DTD/svg10.dtd">
<svg version="1.0" xmlns="http://www.w3.org/2000/svg"
 width="500.000000pt" height="500.000000pt" viewBox="0 0 500.000000 500.000000"
 preserveAspectRatio="xMidYMid meet">

<g transform="translate(0.000000,500.000000) scale(0.100000,-0.100000)"
fill="#000000" stroke="none">
<path d="M3490 3454 c-19 -8 -52 -14 -72 -12 l-38 4 0 -57 c0 -87 34 -108 111
-69 22 11 55 21 75 22 l35 1 -3 61 -3 61 -35 2 c-19 2 -51 -4 -70 -13z m75
-14 c3 -5 0 -7 -9 -4 -8 3 -24 0 -36 -6 -12 -6 -24 -9 -27 -6 -6 6 33 24 54
25 6 1 15 -3 18 -9z m-140 -70 c0 -22 -3 -40 -7 -40 -10 0 -11 64 -1 73 3 4 7
7 7 7 1 0 1 -18 1 -40z m115 6 c0 -3 -4 -8 -10 -11 -5 -3 -10 -1 -10 4 0 6 5
11 10 11 6 0 10 -2 10 -4z"/>
<path d="M3490 3199 c-23 -32 -45 -147 -75 -404 -8 -71 -20 -155 -25 -185 -23
-133 -41 -284 -47 -395 -3 -66 -10 -123 -15 -126 -13 -9 -18 -61 -7 -81 8 -14
23 -18 74 -18 l65 0 0 55 c0 40 -4 55 -14 55 -11 0 -11 12 0 73 7 39 16 89 19
110 6 37 6 37 54 37 55 0 53 3 67 -118 6 -53 4 -65 -10 -75 -14 -10 -16 -26
-14 -87 l3 -75 98 -3 97 -3 0 86 c0 67 -3 85 -14 85 -18 0 -23 16 -31 100 -7
73 -52 412 -96 725 -26 182 -34 214 -55 242 -31 41 -47 41 -74 2z m15 -76
c-18 -39 -28 -86 -16 -79 5 4 7 -3 4 -15 -5 -19 -7 -20 -16 -4 -11 21 -3 90
13 110 20 25 29 17 15 -12z m15 -54 c0 -11 -4 -18 -10 -14 -5 3 -7 12 -3 20 7
21 13 19 13 -6z m2 -47 c3 -11 -1 -30 -9 -43 -13 -24 -13 -23 -11 11 3 52 12
65 20 32z m15 -94 c-3 -8 -6 -5 -6 6 -1 11 2 17 5 13 3 -3 4 -12 1 -19z m-57
-55 c-1 -13 -29 -59 -30 -48 0 21 13 55 21 55 5 0 9 -3 9 -7z m-23 -115 c-3
-7 -5 -2 -5 12 0 14 2 19 5 13 2 -7 2 -19 0 -25z m3 -32 c0 -3 -4 -8 -10 -11
-5 -3 -10 -1 -10 4 0 6 5 11 10 11 6 0 10 -2 10 -4z m157 -33 c-3 -10 -5 -4
-5 12 0 17 2 24 5 18 2 -7 2 -21 0 -30z m-74 -129 c7 -99 5 -104 -47 -104
l-23 0 23 98 c13 53 24 106 25 117 l0 20 8 -20 c5 -11 11 -61 14 -111z m84 34
c-3 -8 -6 -5 -6 6 -1 11 2 17 5 13 3 -3 4 -12 1 -19z m15 -80 c3 -27 2 -48 -3
-48 -5 0 -9 23 -9 52 0 62 5 60 12 -4z m8 -118 c0 -5 -19 -9 -42 -9 l-43 2 40
7 c22 4 41 8 43 9 1 0 2 -3 2 -9z m6 -135 c1 -8 -2 -15 -7 -15 -5 0 -9 10 -9
22 0 23 12 17 16 -7z m14 -29 c0 -3 -4 -8 -10 -11 -5 -3 -10 -1 -10 4 0 6 5
11 10 11 6 0 10 -2 10 -4z m-43 -78 c-2 -13 -4 -3 -4 22 0 25 2 35 4 23 2 -13
2 -33 0 -45z m51 -70 c-11 -23 -10 -26 9 -24 12 1 19 -7 21 -23 3 -22 1 -23
-38 -18 -22 2 -42 6 -45 8 -2 2 1 24 6 49 13 59 17 82 18 100 1 13 2 13 11 0
8 -12 10 -10 11 10 1 14 5 0 9 -30 4 -30 3 -63 -2 -72z"/>
<path d="M3648 2112 c-3 -9 -1 -26 3 -37 6 -15 8 -11 8 18 1 40 -4 48 -11 19z"/>
<path d="M2414 3188 c-17 -33 -45 -192 -64 -363 -6 -49 -21 -164 -34 -255 -32
-216 -46 -345 -46 -419 0 -36 -4 -61 -11 -61 -6 0 -9 -19 -7 -47 l3 -48 63 -5
c35 -3 65 -3 67 0 2 3 6 26 10 53 6 39 5 47 -9 47 -20 0 -20 12 1 127 l16 93
48 0 c54 0 53 1 65 -117 6 -64 4 -73 -10 -73 -13 0 -16 -13 -16 -80 l0 -81
103 3 102 3 3 73 c3 66 1 74 -17 79 -21 5 -31 30 -31 78 0 31 -40 333 -91 683
-16 111 -29 217 -29 234 0 18 -11 48 -26 70 -34 49 -67 51 -90 6z m16 -74 c-6
-14 -8 -29 -5 -34 3 -4 -3 -14 -11 -21 -15 -12 -16 -10 -9 21 7 31 21 60 31
60 2 0 -1 -12 -6 -26z m21 -43 c-6 -10 -8 -21 -5 -23 2 -3 6 -23 8 -45 2 -29
-1 -40 -11 -40 -11 0 -13 13 -9 61 6 73 4 66 16 66 7 0 7 -6 1 -19z m-27 -46
c-4 -8 -7 -15 -9 -15 -2 0 -5 7 -9 15 -3 9 0 15 9 15 9 0 12 -6 9 -15z m-30
-188 c-12 -16 -15 -17 -10 -4 3 10 6 28 6 40 1 20 2 20 11 4 7 -13 6 -23 -7
-40z m-7 -74 c-3 -10 -5 -4 -5 12 0 17 2 24 5 18 2 -7 2 -21 0 -30z m3 -43 c0
-5 -5 -10 -11 -10 -5 0 -7 5 -4 10 3 6 8 10 11 10 2 0 4 -4 4 -10z m157 -32
c-3 -7 -5 -2 -5 12 0 14 2 19 5 13 2 -7 2 -19 0 -25z m-73 -130 l6 -98 -38 0
-39 0 23 98 c13 53 24 106 25 117 l0 20 8 -20 c5 -11 11 -64 15 -117z m98 -40
c3 -27 2 -48 -3 -48 -5 0 -9 23 -9 52 0 62 5 60 12 -4z m5 -120 c-3 -8 -6 -5
-6 6 -1 11 2 17 5 13 3 -3 4 -12 1 -19z m17 -94 c3 -8 2 -12 -4 -9 -6 3 -10
10 -10 16 0 14 7 11 14 -7z m-17 -46 c-3 -7 -5 -2 -5 12 0 14 2 19 5 13 2 -7
2 -19 0 -25z m16 -43 c-8 -22 -22 -18 -16 5 3 11 9 17 14 15 4 -3 6 -12 2 -20z
m-36 -62 c-2 -16 -4 -5 -4 22 0 28 2 40 4 28 2 -13 2 -35 0 -50z m50 -55 c-11
-26 -26 -22 -20 5 4 19 3 19 -6 5 -7 -10 -8 -24 -2 -40 6 -12 10 -18 10 -11 1
6 9 10 19 8 9 -2 20 -4 24 -4 4 -1 6 -10 5 -21 -1 -15 -8 -20 -28 -20 -51 0
-57 7 -47 53 8 37 14 73 17 100 1 5 6 5 11 2 6 -3 11 4 12 17 0 13 4 1 7 -27
4 -27 3 -58 -2 -67z"/>
<path d="M928 3178 c-20 -38 -34 -97 -43 -188 -3 -36 -10 -90 -15 -120 -5 -30
-23 -156 -40 -280 -16 -124 -34 -255 -40 -292 -5 -37 -10 -100 -10 -140 0 -41
-5 -79 -11 -85 -6 -6 -9 -28 -7 -49 l3 -39 66 -3 67 -3 4 46 c2 29 -1 50 -9
57 -17 13 -16 22 3 129 l17 89 48 0 c55 0 54 1 64 -108 6 -62 5 -75 -9 -85
-14 -10 -16 -26 -14 -82 l3 -70 98 -3 97 -3 0 81 c0 63 -3 80 -14 80 -10 0
-17 16 -21 48 -3 26 -10 74 -15 107 -5 33 -14 103 -20 155 -12 99 -43 329 -60
440 -5 36 -12 90 -15 120 -17 152 -47 230 -89 230 -14 0 -27 -11 -38 -32z m12
-78 c-10 -33 -10 -36 -10 -50 0 -5 -4 -10 -9 -10 -12 0 -4 60 10 76 17 21 19
17 9 -16z m20 -45 c0 -8 -4 -15 -10 -15 -5 0 -7 7 -4 15 4 8 8 15 10 15 2 0 4
-7 4 -15z m-30 -40 c0 -8 -2 -15 -4 -15 -2 0 -6 7 -10 15 -3 8 -1 15 4 15 6 0
10 -7 10 -15z m34 -41 c3 -27 1 -41 -3 -31 -4 10 -11 18 -16 18 -10 0 -8 46 2
62 9 14 13 2 17 -49z m13 -116 c-3 -8 -6 -5 -6 6 -1 11 2 17 5 13 3 -3 4 -12
1 -19z m-78 -42 c-9 -8 -10 -7 -5 7 3 10 7 24 7 30 1 7 3 4 6 -7 3 -10 -1 -23
-8 -30z m-2 -73 c-3 -10 -5 -4 -5 12 0 17 2 24 5 18 2 -7 2 -21 0 -30z m160
-65 c-3 -7 -5 -2 -5 12 0 14 2 19 5 13 2 -7 2 -19 0 -25z m-71 -145 c6 -79 6
-83 -14 -83 -11 0 -28 -3 -38 -7 -15 -5 -16 -1 -10 43 4 27 11 63 16 79 5 17
12 48 16 70 l7 40 8 -29 c5 -16 11 -67 15 -113z m97 -27 c3 -28 1 -43 -3 -35
-11 19 -16 100 -6 88 2 -2 6 -26 9 -53z m4 -248 c-3 -8 -6 -5 -6 6 -1 11 2 17
5 13 3 -3 4 -12 1 -19z m14 -39 c-8 -20 -10 -22 -16 -7 -4 9 -1 23 7 32 17 18
21 6 9 -25z m22 -140 c-3 -18 0 -28 11 -32 18 -7 21 -32 6 -42 -6 -4 -25 -2
-43 4 -31 10 -33 14 -28 49 l4 37 13 -30 c7 -16 14 -23 15 -15 3 27 -2 55 -12
65 -13 14 -11 28 9 53 17 21 17 21 23 -21 4 -23 5 -54 2 -68z m-56 69 c-3 -8
-6 -5 -6 6 -1 11 2 17 5 13 3 -3 4 -12 1 -19z"/>
<path d="M1292 3198 c-18 -18 -15 -75 6 -90 16 -12 16 -42 7 -522 l-10 -509
-22 -8 c-21 -8 -23 -14 -23 -89 l0 -81 113 3 112 3 0 80 c0 75 -1 80 -22 83
-23 3 -23 4 -23 203 l0 199 25 0 c15 0 31 -9 40 -23 20 -31 34 -145 35 -277 0
-114 19 -213 44 -238 9 -10 34 -16 63 -16 l48 -1 3 73 c3 67 1 72 -18 72 -23
0 -22 -11 -25 205 -2 158 -17 246 -46 281 -8 9 -8 18 -2 27 6 6 19 39 29 72
15 48 19 91 19 220 l0 160 -33 67 c-47 97 -86 118 -213 118 -61 0 -99 -4 -107
-12z m96 -65 c-11 -3 -15 -12 -12 -29 2 -13 0 -24 -6 -24 -5 0 -10 7 -10 16 0
8 -4 12 -10 9 -5 -3 -8 -24 -6 -45 2 -22 0 -40 -5 -40 -5 0 -9 17 -9 38 0 42
29 83 58 81 16 -1 16 -2 0 -6z m107 -23 c3 -5 2 -10 -4 -10 -5 0 -13 5 -16 10
-3 6 -2 10 4 10 5 0 13 -4 16 -10z m35 -40 c0 -5 -2 -10 -4 -10 -3 0 -8 5 -11
10 -3 6 -1 10 4 10 6 0 11 -4 11 -10z m-29 -46 c14 -30 23 -77 26 -137 10
-160 -26 -257 -93 -257 l-27 0 6 78 c4 42 10 141 13 220 7 141 7 142 31 142
19 0 28 -10 44 -46z m-155 -91 c-11 -11 -17 4 -9 23 7 18 8 18 11 1 2 -10 1
-21 -2 -24z m1 -55 c-3 -7 -5 -2 -5 12 0 14 2 19 5 13 2 -7 2 -19 0 -25z m40
-335 c-3 -10 -5 -2 -5 17 0 19 2 27 5 18 2 -10 2 -26 0 -35z m7 -125 c-9 -84
-14 -86 -14 -5 0 39 4 67 10 67 7 0 8 -22 4 -62z m0 -103 c-4 -8 -8 -15 -10
-15 -2 0 -4 7 -4 15 0 8 4 15 10 15 5 0 7 -7 4 -15z m-5 -57 c0 -31 -1 -31
-10 -10 -5 13 -7 28 -3 33 10 16 14 9 13 -23z m-52 -150 c-3 -8 -6 -5 -6 6 -1
11 2 17 5 13 3 -3 4 -12 1 -19z m30 -10 c-3 -8 -6 -5 -6 6 -1 11 2 17 5 13 3
-3 4 -12 1 -19z m10 -60 c-2 -13 -2 -17 0 -10 6 17 23 15 23 -3 0 -8 5 -15 10
-15 6 0 10 -12 10 -26 0 -25 -2 -26 -47 -22 -49 3 -63 11 -63 37 0 11 4 9 14
-4 13 -18 14 -18 10 10 -2 17 -1 22 2 12 8 -24 24 -11 24 19 0 13 5 24 10 24
6 0 9 -10 7 -22z m-82 -98 c3 -5 1 -10 -4 -10 -6 0 -11 5 -11 10 0 6 2 10 4
10 3 0 8 -4 11 -10z"/>
<path d="M1970 3076 c0 -65 2 -74 20 -79 19 -5 20 -14 21 -169 0 -89 2 -262 5
-383 3 -159 0 -237 -9 -280 -14 -62 -42 -125 -55 -125 -13 0 -39 53 -52 108
-18 77 -20 872 -3 890 18 18 16 57 -3 76 -20 21 -117 22 -137 2 -9 -9 -13 -28
-11 -47 4 -29 10 -39 34 -51 3 -2 2 -61 -1 -133 -13 -251 -10 -715 5 -785 16
-78 44 -135 84 -173 25 -24 38 -29 81 -29 35 1 60 7 80 21 37 27 87 130 101
211 7 38 14 232 17 462 5 376 6 397 24 401 17 4 19 15 19 81 l0 76 -110 0
-110 0 0 -74z m98 37 l-57 -4 -4 -42 -4 -42 -1 48 -2 47 63 -2 62 -2 -57 -3z
m42 -138 c0 -19 -4 -35 -8 -35 -4 0 -6 16 -4 35 2 19 6 35 8 35 2 0 4 -16 4
-35z m-13 -167 c-3 -8 -6 -5 -6 6 -1 11 2 17 5 13 3 -3 4 -12 1 -19z m-46
-159 c-6 -16 -10 -18 -10 -7 -1 22 12 55 16 42 2 -6 -1 -22 -6 -35z m39 -4 c0
-14 -4 -25 -10 -25 -11 0 -14 33 -3 43 11 11 13 8 13 -18z m0 -175 c0 -66 -4
-120 -9 -120 -8 0 -10 29 -12 120 -1 85 3 120 11 120 6 0 10 -48 10 -120z
m-31 68 c-1 -70 -14 -85 -15 -18 -1 33 3 60 7 60 5 0 9 -19 8 -42z m1 -178 c0
-21 5 -42 10 -45 15 -10 12 -25 -6 -25 -12 0 -15 -9 -14 -42 2 -24 2 -56 0
-73 -2 -27 -3 -28 -8 -7 -10 34 -2 243 9 237 5 -4 9 -24 9 -45z m-213 -112
c-2 -13 -4 -5 -4 17 -1 22 1 32 4 23 2 -10 2 -28 0 -40z m230 -15 c-3 -10 -5
-4 -5 12 0 17 2 24 5 18 2 -7 2 -21 0 -30z m-203 -133 c4 -21 3 -31 -3 -25 -5
6 -12 33 -15 60 -6 52 5 31 18 -35z m87 -115 c10 4 19 3 19 -2 0 -5 -10 -9
-22 -10 -26 -2 -58 23 -58 45 0 9 8 5 21 -12 15 -19 27 -25 40 -21z"/>
<path d="M2800 3065 c0 -68 2 -75 20 -75 20 0 20 -7 20 -435 0 -428 0 -435
-20 -435 -18 0 -20 -7 -20 -75 l0 -76 113 3 112 3 0 70 c0 65 -2 70 -22 73
-22 3 -23 8 -23 86 0 46 -3 145 -7 221 -4 95 -3 136 4 132 6 -4 39 -123 73
-264 51 -210 68 -263 88 -285 35 -38 63 -36 86 6 17 33 18 63 14 520 -3 399
-1 486 10 491 9 3 12 18 10 42 l-3 38 -77 3 -78 3 0 -42 c0 -33 4 -42 22 -46
21 -6 21 -8 15 -162 -4 -86 -7 -196 -7 -244 0 -49 -4 -86 -8 -83 -5 3 -14 31
-21 63 -7 32 -37 157 -68 278 -30 121 -58 230 -60 243 -5 21 -10 22 -89 22
l-84 0 0 -75z m146 -80 c0 -55 4 -113 8 -128 4 -19 3 -26 -4 -22 -6 4 -10 -7
-10 -29 0 -20 5 -36 10 -36 6 0 10 -5 10 -11 0 -5 -4 -7 -10 -4 -6 4 -8 -12
-5 -42 5 -41 4 -44 -5 -23 -6 14 -11 66 -10 115 4 212 -1 275 -19 246 -11 -17
-51 -1 -51 21 0 16 6 19 43 16 l42 -3 1 -100z m-32 -95 c0 -61 -4 -113 -7
-117 -4 -3 -7 46 -7 110 0 65 3 117 8 117 4 0 7 -50 6 -110z m81 -156 c2 -21
9 -65 15 -97 6 -33 9 -61 7 -63 -8 -9 -37 136 -30 153 4 10 2 14 -4 10 -6 -4
-8 3 -5 19 6 33 11 26 17 -22z m-83 -21 c-5 -59 -10 -63 -11 -10 -1 26 3 47 7
47 4 0 6 -17 4 -37z m-5 -120 c-3 -10 -5 -2 -5 17 0 19 2 27 5 18 2 -10 2 -26
0 -35z m40 -5 c-3 -7 -5 -2 -5 12 0 14 2 19 5 13 2 -7 2 -19 0 -25z m-10 -40
c-3 -8 -6 -5 -6 6 -1 11 2 17 5 13 3 -3 4 -12 1 -19z m131 -130 c13 -46 26
-92 28 -103 5 -20 5 -20 -7 -1 -15 25 -59 186 -50 186 3 0 17 -37 29 -82z
m-181 -260 c-2 -18 -4 -6 -4 27 0 33 2 48 4 33 2 -15 2 -42 0 -60z m263 -32
c-1 -16 -29 36 -30 54 0 8 7 2 15 -14 8 -15 15 -33 15 -40z m-179 -36 c16 0
19 -7 17 -42 l-1 -43 -4 38 c-3 29 -9 37 -24 37 -13 0 -19 7 -18 23 1 16 2 18
6 5 2 -10 13 -18 24 -18z m-81 5 c0 -8 -7 -15 -15 -15 -13 0 -14 3 -3 15 16
18 18 18 18 0z"/>
<path d="M2870 3070 c0 -5 5 -10 10 -10 6 0 10 5 10 10 0 6 -4 10 -10 10 -5 0
-10 -4 -10 -10z"/>
<path d="M2908 3073 c7 -3 16 -2 19 1 4 3 -2 6 -13 5 -11 0 -14 -3 -6 -6z"/>
</g>
</svg>
